<svg xmlns="http://www.w3.org/2000/svg" width="24" height="24" viewBox="0 0 24 24"><g fill="none" fill-rule="evenodd" stroke-linecap="round" stroke-linejoin="round"><path stroke="#0005F8" stroke-width="2" d="M12,8 C10.2400017,8 10,7 8.5,7 C7,7 4,8 4,13 C4,18 7,21.5 9,21.5 C11,21.5 11,20.5 12,20.5 C13,20.5 13.5,21.5 15.5,21.5 C17.5,21.5 19.5,18.5 20,16 C18,15.3333333 17,14.1666667 17,12.5 C17,10.8333333 17.6666667,9.66666667 19,9 C18.6666667,7.66666667 17.6666667,7 16,7 C13.5,7 13.7599983,8 12,8 Z"/><path stroke="#0005F8" stroke-width="2" d="M16,2 C14.6666667,2 13.5,2.5 12.5,3.5 C11.5,4.5 11.1666667,6 11.5,8 C13.1666667,7.66666667 14.3333333,7 15,6 C15.6666667,5 16,3.66666667 16,2 Z"/></g></svg>